<svg width="45" height="45" viewBox="0 0 45 45" fill="none" xmlns="http://www.w3.org/2000/svg">
<circle cx="22.5" cy="22.5" r="22.5" fill="#57C84D"/>
<path d="M8.04115 22.7705V21.7136C8.99001 21.7136 9.65194 21.5148 10.0269 21.117C10.4076 20.7193 10.598 20.0545 10.598 19.1227V16.3955C10.598 15.6114 10.6718 14.9324 10.8196 14.3585C10.973 13.7847 11.2201 13.3102 11.561 12.9352C11.9019 12.5602 12.3565 12.2818 12.9247 12.1C13.4929 11.9182 14.1946 11.8273 15.0298 11.8273V13.4977C14.3707 13.4977 13.8508 13.6 13.4701 13.8045C13.0951 14.0091 12.8281 14.3273 12.669 14.7591C12.5156 15.1852 12.4389 15.7307 12.4389 16.3955V19.8045C12.4389 20.2477 12.3792 20.6511 12.2599 21.0148C12.1463 21.3784 11.9332 21.6909 11.6207 21.9523C11.3082 22.2136 10.8622 22.4153 10.2826 22.5574C9.70876 22.6994 8.9616 22.7705 8.04115 22.7705ZM15.0298 33.6455C14.1946 33.6455 13.4929 33.5545 12.9247 33.3727C12.3565 33.1909 11.9019 32.9125 11.561 32.5375C11.2201 32.1625 10.973 31.6881 10.8196 31.1142C10.6718 30.5403 10.598 29.8614 10.598 29.0773V26.35C10.598 25.4182 10.4076 24.7534 10.0269 24.3557C9.65194 23.958 8.99001 23.7591 8.04115 23.7591V22.7023C8.9616 22.7023 9.70876 22.7733 10.2826 22.9153C10.8622 23.0574 11.3082 23.2591 11.6207 23.5205C11.9332 23.7818 12.1463 24.0943 12.2599 24.458C12.3792 24.8216 12.4389 25.225 12.4389 25.6682V29.0773C12.4389 29.742 12.5156 30.2875 12.669 30.7136C12.8281 31.1398 13.0951 31.4551 13.4701 31.6597C13.8508 31.8699 14.3707 31.975 15.0298 31.975V33.6455ZM8.04115 23.7591V21.7136H10.0525V23.7591H8.04115ZM37.1569 22.7023V23.7591C36.2081 23.7591 35.5433 23.958 35.1626 24.3557C34.7876 24.7534 34.6001 25.4182 34.6001 26.35V29.0773C34.6001 29.8614 34.5234 30.5403 34.37 31.1142C34.2223 31.6881 33.9779 32.1625 33.637 32.5375C33.2961 32.9125 32.8416 33.1909 32.2734 33.3727C31.7052 33.5545 31.0035 33.6455 30.1683 33.6455V31.975C30.8274 31.975 31.3444 31.8699 31.7194 31.6597C32.1001 31.4551 32.3671 31.1398 32.5206 30.7136C32.6796 30.2875 32.7592 29.742 32.7592 29.0773V25.6682C32.7592 25.225 32.816 24.8216 32.9296 24.458C33.049 24.0943 33.2649 23.7818 33.5774 23.5205C33.8899 23.2591 34.3331 23.0574 34.9069 22.9153C35.4865 22.7733 36.2365 22.7023 37.1569 22.7023ZM30.1683 11.8273C31.0035 11.8273 31.7052 11.9182 32.2734 12.1C32.8416 12.2818 33.2961 12.5602 33.637 12.9352C33.9779 13.3102 34.2223 13.7847 34.37 14.3585C34.5234 14.9324 34.6001 15.6114 34.6001 16.3955V19.1227C34.6001 20.0545 34.7876 20.7193 35.1626 21.117C35.5433 21.5148 36.2081 21.7136 37.1569 21.7136V22.7705C36.2365 22.7705 35.4865 22.6994 34.9069 22.5574C34.3331 22.4153 33.8899 22.2136 33.5774 21.9523C33.2649 21.6909 33.049 21.3784 32.9296 21.0148C32.816 20.6511 32.7592 20.2477 32.7592 19.8045V16.3955C32.7592 15.7307 32.6796 15.1852 32.5206 14.7591C32.3671 14.3273 32.1001 14.0091 31.7194 13.8045C31.3444 13.6 30.8274 13.4977 30.1683 13.4977V11.8273ZM37.1569 21.7136V23.7591H35.1456V21.7136H37.1569Z" fill="#1B1B1B"/>
<path d="M15.4485 24.8216C14.886 24.8216 14.403 24.6227 13.9996 24.225C13.6019 23.8216 13.403 23.3386 13.403 22.7761C13.403 22.2193 13.6019 21.742 13.9996 21.3443C14.403 20.9466 14.886 20.7477 15.4485 20.7477C15.9939 20.7477 16.4712 20.9466 16.8803 21.3443C17.2894 21.742 17.4939 22.2193 17.4939 22.7761C17.4939 23.1511 17.3973 23.4949 17.2041 23.8074C17.0166 24.1142 16.7695 24.3614 16.4627 24.5489C16.1559 24.7307 15.8178 24.8216 15.4485 24.8216ZM22.5969 24.8216C22.0344 24.8216 21.5514 24.6227 21.148 24.225C20.7503 23.8216 20.5514 23.3386 20.5514 22.7761C20.5514 22.2193 20.7503 21.742 21.148 21.3443C21.5514 20.9466 22.0344 20.7477 22.5969 20.7477C23.1424 20.7477 23.6196 20.9466 24.0287 21.3443C24.4378 21.742 24.6424 22.2193 24.6424 22.7761C24.6424 23.1511 24.5458 23.4949 24.3526 23.8074C24.1651 24.1142 23.9179 24.3614 23.6111 24.5489C23.3043 24.7307 22.9662 24.8216 22.5969 24.8216ZM29.7453 24.8216C29.1828 24.8216 28.6999 24.6227 28.2965 24.225C27.8987 23.8216 27.6999 23.3386 27.6999 22.7761C27.6999 22.2193 27.8987 21.742 28.2965 21.3443C28.6999 20.9466 29.1828 20.7477 29.7453 20.7477C30.2908 20.7477 30.7681 20.9466 31.1772 21.3443C31.5862 21.742 31.7908 22.2193 31.7908 22.7761C31.7908 23.1511 31.6942 23.4949 31.501 23.8074C31.3135 24.1142 31.0664 24.3614 30.7595 24.5489C30.4527 24.7307 30.1147 24.8216 29.7453 24.8216Z" fill="#1B1B1B"/>
</svg>
